<?xml version="1.0" encoding="UTF-8" standalone="no"?>
<!-- Created with Inkscape (http://www.inkscape.org/) -->

<svg
   xmlns:dc="http://purl.org/dc/elements/1.1/"
   xmlns:cc="http://creativecommons.org/ns#"
   xmlns:rdf="http://www.w3.org/1999/02/22-rdf-syntax-ns#"
   xmlns:svg="http://www.w3.org/2000/svg"
   xmlns="http://www.w3.org/2000/svg"
   xmlns:sodipodi="http://sodipodi.sourceforge.net/DTD/sodipodi-0.dtd"
   xmlns:inkscape="http://www.inkscape.org/namespaces/inkscape"
   width="38.976376"
   height="38.976376"
   id="svg2"
   version="1.1"
   inkscape:version="0.48.4 r9939"
   sodipodi:docname="рисунок.svg">
  <defs
     id="defs4" />
  <sodipodi:namedview
     id="base"
     pagecolor="#ffffff"
     bordercolor="#666666"
     borderopacity="1.0"
     inkscape:pageopacity="0.0"
     inkscape:pageshadow="2"
     inkscape:zoom="5.6"
     inkscape:cx="32.860659"
     inkscape:cy="25.144635"
     inkscape:document-units="mm"
     inkscape:current-layer="layer1"
     showgrid="false"
     inkscape:window-width="1311"
     inkscape:window-height="747"
     inkscape:window-x="55"
     inkscape:window-y="21"
     inkscape:window-maximized="1"
     units="mm" />
  <metadata
     id="metadata7">
    <rdf:RDF>
      <cc:Work
         rdf:about="">
        <dc:format>image/svg+xml</dc:format>
        <dc:type
           rdf:resource="http://purl.org/dc/dcmitype/StillImage" />
        <dc:title></dc:title>
      </cc:Work>
    </rdf:RDF>
  </metadata>
  <g
     inkscape:label="Layer 1"
     inkscape:groupmode="layer"
     id="layer1"
     transform="translate(0,-1013.3858)">
    <g
       transform="matrix(1.25,0,0,-1.25,2.3116884,1054.1578)"
       inkscape:label="icon 1.1"
       id="g2993">
      <path
         id="path2995"
         style="fill:#fff500;fill-opacity:1;fill-rule:evenodd;stroke:none"
         d="m 11.572643,29.9642 c 1.5086,1.5899 3.1414,1.616 4.7733,0.1165 l 10.3943,-10.3896 c 0.8144,-0.7942 1.7788,-1.5241 1.5596,-2.7827 -0.235,-1.3487 -1.2169,-1.4083 -2.3054,-1.7567 -0.0986,-0.0314 -0.1406,-0.174 -0.1406,-0.2627 l -0.0686,-9.8759 c -0.1074,-0.8331 -1.3558,-1.4743 -2.0199,-1.6566 -2.5566,-0.7019 -5.1537,-0.5031 -7.7755,-0.4748 L 4.3377429,2.9928 c -1.5363,0.0604 -2.3822,1.5696 -2.5364,2.9276 l 0.0093,9.1868 c -0.009,0.2546 -1.08560005,0.3442 -1.25320005,0.4062 -1.2529,0.4649 -1.4927,2.0509 -0.7063,3.0345 l 0.2539,0.29 0.5165,0.4853 0.39660005,0.3736 0,0 2.8477,2.8301 2.3037,2.3301 0.0241,0.0278 5.3368001,5.1205 0.0422,-0.0411 z m 0,0 0.0422,-0.0411 -4.9473001,-5.4967 0.0241,0.0278 -6.06870005,-6.4953 c -1.1316,-1.453 1.27960005,-1.4859 1.87850005,-1.9925 l 0.112,-0.1111 0.0995,-0.129 0.0833,-0.1451 0.313,-2.3613 -0.085,-3.2867 -0.0324,-1.6869 0.1143,-2.1549 0.1003,-0.5273 0.1256,-0.3804 0.1176,-0.1995 -2e-4,2e-4 0.2157,-0.231 0.254,-0.2106 0.1261,-0.0779 c 0.0865,-0.0505 0.1913,-0.0885 0.2925,-0.0876 L 17.910643,4.4028 c 1.6798,-0.021 4.8058,-0.4351 6.3263,0.8206 l 0.0905,0.0933 0.064,0.0898 0.044,0.0904 -3e-4,-8e-4 0.1463,4.3342 0.0581,5.2197 0,-3e-4 0.0391,0.2024 0.0598,0.1922 0.0816,0.1797 c 0.4422,0.8246 3.3168,0.7849 2.1714,2.2759 l -0.1693,0.2087 -0.4252,0.426 -0.4393,0.4326 0,0 -2.8282,2.9911 -2.2396,2.4386 -3e-4,3e-4 -2.16,2.3009 -2.7964,3.0234 0,0 -0.468,0.4768 -0.5057,0.3484 -0.5334,0.222 c -1.1126,0.3257 -1.9599,-0.2285 -2.8534,-0.8045"
         inkscape:connector-curvature="0" />
    </g>
  </g>
</svg>
