<?xml version="1.0" encoding="UTF-8" standalone="no"?>
<!-- Created with Inkscape (http://www.inkscape.org/) -->

<svg
   xmlns:dc="http://purl.org/dc/elements/1.1/"
   xmlns:cc="http://creativecommons.org/ns#"
   xmlns:rdf="http://www.w3.org/1999/02/22-rdf-syntax-ns#"
   xmlns:svg="http://www.w3.org/2000/svg"
   xmlns="http://www.w3.org/2000/svg"
   xmlns:sodipodi="http://sodipodi.sourceforge.net/DTD/sodipodi-0.dtd"
   xmlns:inkscape="http://www.inkscape.org/namespaces/inkscape"
   width="31.889763"
   height="38.976376"
   id="svg2"
   version="1.1"
   inkscape:version="0.48.4 r9939"
   sodipodi:docname="1.2.svg">
  <defs
     id="defs4" />
  <sodipodi:namedview
     id="base"
     pagecolor="#ffffff"
     bordercolor="#666666"
     borderopacity="1.0"
     inkscape:pageopacity="0.0"
     inkscape:pageshadow="2"
     inkscape:zoom="11.2"
     inkscape:cx="25.676168"
     inkscape:cy="18.637588"
     inkscape:document-units="mm"
     inkscape:current-layer="layer1"
     showgrid="false"
     inkscape:window-width="1311"
     inkscape:window-height="747"
     inkscape:window-x="55"
     inkscape:window-y="21"
     inkscape:window-maximized="1"
     units="mm"
     showguides="true"
     inkscape:guide-bbox="true"
     inkscape:snap-page="false" />
  <metadata
     id="metadata7">
    <rdf:RDF>
      <cc:Work
         rdf:about="">
        <dc:format>image/svg+xml</dc:format>
        <dc:type
           rdf:resource="http://purl.org/dc/dcmitype/StillImage" />
        <dc:title></dc:title>
      </cc:Work>
    </rdf:RDF>
  </metadata>
  <g
     inkscape:label="Layer 1"
     inkscape:groupmode="layer"
     id="layer1"
     transform="translate(0,-1013.3858)">
    <g
       transform="matrix(1.25,0,0,-1.25,-1.8238511,1053.7113)"
       inkscape:label="icon 1.2"
       id="g3083">
      <g
         id="g3085">
        <path
           id="path3087"
           style="fill:#fff500;fill-opacity:1;fill-rule:evenodd;stroke:none"
           d="m 6.8686,30.7312 14.8071,0.4499 c 1.461,0.0139 2.8346,-0.8697 3.4163,-2.2136 0.1964,-0.4532 0.2999,-0.9476 0.3101,-1.4414 L 25.5487,6.2683 C 25.1663,1.4173 15.9749,3.1215 14.2722,3.1371 12.7607,3.1507 3.4886,1.603 3.1419,6.2986 l 0.063,10.9961 c 0.0439,2.7871 -2.2658,13.0916 3.6637,13.4731 l 0,-0.0366 z m 0,0 0,-0.0365 C 5.6149,30.3874 4.0482,29.6629 3.9711,28.12 L 4.1216,17.2947 4.3152,6.5404 C 4.3787,5.739 5.1718,4.9771 5.8711,4.6942 6.1863,4.5669 6.5288,4.5051 6.8686,4.5051 l 14.8071,0.1403 c 1.3314,0.0224 2.4406,1.0661 2.4636,2.418 l 0.1752,21.0033 c -0.0522,0.9558 -1.1458,2.0523 -2.0875,2.1492 L 6.8686,30.7312 z"
           inkscape:connector-curvature="0" />
        <path
           id="path3089"
           style="fill:#fff971;fill-opacity:1;fill-rule:evenodd;stroke:none"
           d="m 5.6344,29.0214 17.4748,0.4813 c 0.1352,-0.0068 0.2729,-0.1465 0.2817,-0.2818 L 23.6373,6.5483 C 23.6231,6.3439 23.415,6.1398 23.2109,6.122 L 5.4085,6.304 C 5.1891,6.323 5.0414,6.6705 5.044,6.8496 l 0.5904,22.1718 z m 0,0 L 6.2127,7.3052 C 11.3862,6.1478 16.956,6.2541 22.1284,7.4477 l 0.1134,10.488 0.1397,10.5737 -8.1096,0.1435 -8.6375,0.3685 z"
           inkscape:connector-curvature="0" />
      </g>
      <path
         id="path3091"
         style="fill:#fff971;fill-opacity:1;fill-rule:evenodd;stroke:none"
         d="m 12.1408,4.9847 c -0.1673,0.419 -0.614,1.1362 -0.1117,1.5149 0.771,0.5811 3.473,0.5195 4.3515,0.475 C 17.4489,6.9205 17.3548,5.053 16.9461,4.4677 16.4047,3.6918 14.7883,4.1956 14.2722,4.2599 l -1.9919,0.3254 c -0.1917,0.042 -0.2467,0.2551 -0.167,0.3994 l 0.0275,0 z m 0,0 0.0275,0 c 0.0862,-0.0479 0.1046,-0.0504 0.1868,-0.0346 l 0.0071,0.0125 1.91,0.3039 1.3884,0.1312 -0.0077,0.0984 -8e-4,0.0145 -1.3799,0.1128 -1.8513,0.2075 -0.2801,-0.8462 z M 16.0716,5.4366 16.1821,5.4468 16.0889,5.4411 16.0716,5.4366 z M 16.0673,5.4763 16.073,5.4748 16.1821,5.4672 16.0673,5.4763 z m -3.6328,0.3957 0.0133,0.0113 c 0.0348,0.036 0.0374,0.0785 0.0314,0.1244 L 12.4345,5.872 z"
         inkscape:connector-curvature="0" />
    </g>
  </g>
</svg>
