<?xml version="1.0" encoding="UTF-8" standalone="no"?>
<!-- Created with Inkscape (http://www.inkscape.org/) -->

<svg
   xmlns:dc="http://purl.org/dc/elements/1.1/"
   xmlns:cc="http://creativecommons.org/ns#"
   xmlns:rdf="http://www.w3.org/1999/02/22-rdf-syntax-ns#"
   xmlns:svg="http://www.w3.org/2000/svg"
   xmlns="http://www.w3.org/2000/svg"
   xmlns:sodipodi="http://sodipodi.sourceforge.net/DTD/sodipodi-0.dtd"
   xmlns:inkscape="http://www.inkscape.org/namespaces/inkscape"
   width="38.976376"
   height="38.976376"
   id="svg2"
   version="1.1"
   inkscape:version="0.48.4 r9939"
   sodipodi:docname="1.2.svg">
  <defs
     id="defs4" />
  <sodipodi:namedview
     id="base"
     pagecolor="#ffffff"
     bordercolor="#666666"
     borderopacity="1.0"
     inkscape:pageopacity="0.0"
     inkscape:pageshadow="2"
     inkscape:zoom="11.2"
     inkscape:cx="25.676168"
     inkscape:cy="18.637588"
     inkscape:document-units="mm"
     inkscape:current-layer="layer1"
     showgrid="false"
     inkscape:window-width="1311"
     inkscape:window-height="747"
     inkscape:window-x="55"
     inkscape:window-y="21"
     inkscape:window-maximized="1"
     units="mm"
     showguides="true"
     inkscape:guide-bbox="true"
     inkscape:snap-page="false" />
  <metadata
     id="metadata7">
    <rdf:RDF>
      <cc:Work
         rdf:about="">
        <dc:format>image/svg+xml</dc:format>
        <dc:type
           rdf:resource="http://purl.org/dc/dcmitype/StillImage" />
        <dc:title></dc:title>
      </cc:Work>
    </rdf:RDF>
  </metadata>
  <g
     inkscape:label="Layer 1"
     inkscape:groupmode="layer"
     id="layer1"
     transform="translate(0,-1013.3858)">
    <g
       transform="matrix(1.25,0,0,-1.25,-0.81337049,1053.6221)"
       inkscape:label="icon 1.3"
       id="g3173">
      <g
         id="g3175">
        <path
           id="path3177"
           style="fill:#fff500;fill-opacity:1;fill-rule:evenodd;stroke:none"
           d="m 24.4026,27.8351 -0.2089,0.085 -0.1826,0.1162 0.0026,-0.0019 -0.1706,0.1077 -0.1687,0.1102 0.0034,-0.0025 -0.142,0.0887 -0.1415,0.0899 0.004,-0.0029 -0.167,0.1001 -0.1664,0.1012 0.0049,-0.0031 -0.1426,0.0813 -0.1423,0.082 0.0045,-0.0029 -0.1275,0.0698 -0.1276,0.0697 0.0048,-0.0031 -0.1428,0.074 -0.1426,0.0739 0.0056,-0.0031 -0.1363,0.0664 -0.1364,0.0663 0.0054,-0.0026 -0.1338,0.0613 -0.1332,0.0618 0.0051,-0.0029 -0.0839,0.0369 -0.0842,0.0365 0.0043,-0.0019 -0.1024,0.0428 -0.1023,0.043 0.004,-0.0019 -0.0726,0.0289 -0.0694,0.028 -0.0029,0.0012 -0.0578,0.0221 -0.057,0.0224 -0.0034,0.0014 -0.0473,0.0176 -0.0476,0.0175 -0.0032,0.0015 -0.0714,0.0255 -0.0711,0.0258 -0.0034,0.0014 -0.0519,0.0181 -0.0519,0.0179 -0.0034,0.0014 -0.0575,0.019 -0.0581,0.0196 -0.0026,0.0011 -0.0618,0.0201 -0.0643,0.021 0.0045,-0.0017 -0.0638,0.0198 -0.0606,0.019 -0.0029,9e-4 -0.0547,0.0167 -0.0533,0.0159 -0.0039,0.0014 -0.078,0.0224 -0.078,0.0224 -0.0042,0.0011 -0.0496,0.0136 -0.0508,0.0139 -0.0028,9e-4 -0.0587,0.0155 -0.0572,0.0151 -0.0043,0.0011 -0.0312,0.0079 -0.034,0.0083 -0.0014,5e-4 -0.051,0.0128 -0.0522,0.0127 0.0043,-0.0011 -0.0831,0.0193 -0.0827,0.0195 0.0056,-0.0014 -0.1049,0.0227 -0.1046,0.023 0.006,-0.0015 -0.0825,0.0165 -0.0762,0.015 -0.006,0.0014 -0.0904,0.0162 -0.0964,0.0178 0.006,-0.0014 -0.0859,0.0145 -0.0856,0.0142 0.0144,-0.0026 -0.3339,0.0428 -0.3064,0.0391 -0.599,0.0267 -0.5712,0.0258 -0.479,-0.0247 L 16.1107,30.2613 15.702,30.2071 15.3196,30.1567 14.7402,30.0254 14.188,29.9004 13.538,29.6708 12.9059,29.4483 12.4971,29.255 12.1022,29.0684 11.7556,28.8711 11.4259,28.6838 11.0577,28.438 10.7059,28.2027 10.3915,27.9592 10.0902,27.726 9.8708,27.5352 9.667,27.3586 9.3954,27.0961 9.1426,26.8517 8.8631,26.5453 8.6023,26.2604 8.2103,25.7545 7.8335,25.2692 7.5385,24.8088 7.2533,24.3643 7.0191,23.9298 6.7972,23.5179 6.5251,22.8906 6.2614,22.2829 6.1257,21.888 5.9939,21.5048 5.889,21.1323 5.7889,20.7771 5.6934,20.3454 5.6027,19.9344 5.5389,19.5403 5.4791,19.1693 5.4337,18.7387 5.3912,18.3328 5.3717,17.9385 5.3529,17.5649 5.3524,17.242 5.3498,16.9177 5.3558,16.5529 5.3617,16.166 5.3827,15.8411 5.4054,15.4888 5.4405,15.1716 5.4782,14.8311 5.5463,14.417 5.6174,13.985 5.7351,13.4824 5.8572,12.9591 5.9842,12.5456 6.1177,12.1122 6.2929,11.6546 6.4749,11.1796 6.709,10.686 6.9542,10.1687 7.1439,9.8331 7.346,9.4745 7.5688,9.131 7.8069,8.7636 7.9325,8.5898 8.0711,8.3976 8.2735,8.1414 8.4861,7.8718 8.7083,7.6195 8.9464,7.3494 9.1468,7.1447 9.3626,6.9236 9.6038,6.7011 9.8649,6.4602 9.8439,6.478 l 0.1723,-0.1451 0.1704,-0.1435 0.0805,-0.0637 0.0921,-0.0732 -0.0108,0.008 0.1429,-0.1083 0.1426,-0.108 -0.0116,0.0085 0.0946,-0.0683 0.0947,-0.0681 -0.011,0.0074 0.121,-0.083 0.121,-0.0831 L 11.0313,5.5647 11.1589,5.4814 11.2861,5.398 11.274,5.4054 11.3652,5.349 11.4565,5.2926 11.4491,5.2965 11.5404,5.2418 11.6317,5.1874 11.6212,5.1934 11.7241,5.1344 11.827,5.0757 11.8131,5.0828 12.0095,4.9782 12.206,4.873 12.1873,4.8821 12.3849,4.786 12.583,4.6896 12.7466,4.6174 12.9283,4.5369 12.9121,4.5431 13.0663,4.481 13.2202,4.4186 13.2077,4.4229 13.3254,4.379 13.443,4.3347 13.4297,4.339 13.5984,4.2809 13.767,4.2228 13.7503,4.2276 13.9416,4.1686 14.1335,4.1097 14.1171,4.1139 14.2957,4.0654 14.4709,4.0178 14.7387,3.9572 15.0231,3.8928 15.234,3.8554 15.4667,3.814 l 0.2347,-0.0309 0.2554,-0.034 -0.0227,0.0017 0.2886,-0.0235 0.2888,-0.0241 -0.0212,8e-4 0.2534,-0.009 0.2534,-0.0091 -0.0167,-3e-4 0.1715,6e-4 0.1712,5e-4 -0.0156,-8e-4 0.2574,0.0105 0.2574,0.0102 -0.025,-0.0026 0.4224,0.0426 0.4212,0.0419 0.2826,0.0468 0.3062,0.0507 -0.0204,-0.0045 0.3251,0.0731 0.3254,0.0729 -0.0181,-0.0051 0.2809,0.079 0.2812,0.0789 -0.017,-0.0057 0.3129,0.1066 0.3132,0.106 -0.0164,-0.0065 0.3427,0.1391 0.3433,0.1384 L 21.668,4.6511 21.9651,4.792 22.2625,4.9317 22.2517,4.9255 22.5122,5.0641 22.773,5.2019 22.7642,5.1959 23.036,5.3561 23.3087,5.5145 23.3011,5.5091 23.8986,5.8867 23.8938,5.8833 24.4032,6.16 C 22.0107,2.9477 16.9036,2.2232 13.2834,3.3009 5.4638,5.6296 1.6027,15.5631 4.9311,22.8413 c 2.0878,4.5649 5.9137,7.9824 11.0883,8.3197 1.906,0.1241 3.8702,-0.3223 5.5758,-1.1775 1.0145,-0.5089 2.1588,-1.2011 2.8074,-2.1484 z m -5.7617,-24.0466 0.0011,3e-4 -0.0246,-0.0043 0.0235,0.004 z"
           inkscape:connector-curvature="0" />
        <path
           id="path3179"
           style="fill:#fff500;fill-opacity:1;fill-rule:evenodd;stroke:none"
           d="m 21.0875,21.4829 c 0.4637,-2.9687 -0.0944,-1.6605 -4.5045,-1.8167 l -4.504,-0.1236 c -0.142,-0.0045 -0.2937,-0.093 -0.3348,-0.2395 -0.2911,-1.0298 -0.7308,-3.8713 0.093,-4.6372 0.059,-0.0547 0.1545,-0.1338 0.2418,-0.1324 l 9.3158,0.0882 c 0.3183,-0.0471 0.4751,-0.4814 0.4955,-0.7419 l 0.1709,-2.6881 0.0071,-0.0221 0.104,0.0564 0.6137,0.4913 0.7966,0.7007 0.951,0.7906 0,0 2.5673,2.0925 1.8337,1.6781 -1.2741,1.3009 -1.899,1.7107 -2e-4,0 -0.6716,0.6633 -1.1922,1.1285 -1.1996,1.0624 c -1.2393,1.0633 -1.3618,-0.2421 -1.5546,-1.3621 l -0.0558,0 z m 0,0 -0.0558,0 c -0.0205,0.5746 -0.1982,2.5793 1.0831,2.3131 1.5811,-0.3283 3.0775,-2.1832 4.2624,-3.1859 l 3.8736,-3.4854 c 0.0742,-0.1021 0.0113,-0.3895 -0.07,-0.472 l -5.6554,-5.2778 c -0.8153,-0.7407 -3.102,-3.024 -3.8359,-0.8703 l -0.091,0.2534 -0.2282,1.2691 -0.049,1.0622 -3.7383,0.0586 -4.504,0.0786 0,0 c -0.8549,0.0515 -1.6444,0.803 -1.6512,1.6806 -0.0093,1.2206 -0.741,5.6648 1.6512,5.6395 l 0,0 4.504,-0.1233 4.3327,-0.1851 0.04,0.5256 0.1318,0.7191 z"
           inkscape:connector-curvature="0" />
      </g>
    </g>
  </g>
</svg>
