<?xml version="1.0" encoding="UTF-8" standalone="no"?>
<!-- Created with Inkscape (http://www.inkscape.org/) -->

<svg
   xmlns:dc="http://purl.org/dc/elements/1.1/"
   xmlns:cc="http://creativecommons.org/ns#"
   xmlns:rdf="http://www.w3.org/1999/02/22-rdf-syntax-ns#"
   xmlns:svg="http://www.w3.org/2000/svg"
   xmlns="http://www.w3.org/2000/svg"
   xmlns:sodipodi="http://sodipodi.sourceforge.net/DTD/sodipodi-0.dtd"
   xmlns:inkscape="http://www.inkscape.org/namespaces/inkscape"
   width="159.44882"
   height="148.81889"
   id="svg2"
   version="1.1"
   inkscape:version="0.48.4 r9939"
   sodipodi:docname="text1.1.svg">
  <defs
     id="defs4" />
  <sodipodi:namedview
     id="base"
     pagecolor="#ffffff"
     bordercolor="#666666"
     borderopacity="1.0"
     inkscape:pageopacity="0.0"
     inkscape:pageshadow="2"
     inkscape:zoom="2.8"
     inkscape:cx="21.553211"
     inkscape:cy="71.126765"
     inkscape:document-units="mm"
     inkscape:current-layer="layer1"
     showgrid="false"
     inkscape:window-width="1311"
     inkscape:window-height="747"
     inkscape:window-x="55"
     inkscape:window-y="21"
     inkscape:window-maximized="1"
     units="mm"
     showguides="true"
     inkscape:guide-bbox="true"
     inkscape:snap-page="false" />
  <metadata
     id="metadata7">
    <rdf:RDF>
      <cc:Work
         rdf:about="">
        <dc:format>image/svg+xml</dc:format>
        <dc:type
           rdf:resource="http://purl.org/dc/dcmitype/StillImage" />
        <dc:title></dc:title>
      </cc:Work>
    </rdf:RDF>
  </metadata>
  <g
     inkscape:label="Layer 1"
     inkscape:groupmode="layer"
     id="layer1"
     transform="translate(0,-903.54327)">
    <g
       transform="matrix(1.25,0,0,-1.25,-0.94800236,1051.6439)"
       inkscape:label="man icon"
       id="g3361">
      <g
         id="g3363">
        <g
           transform="scale(0.99476,1.00106)"
           id="g3365">
          <path
             id="path3367"
             style="fill:none;stroke:#fff500;stroke-width:0.21600001;stroke-linecap:round;stroke-linejoin:round;stroke-miterlimit:22.92558479;stroke-opacity:1;stroke-dasharray:none"
             d="M 51.1464,58.7889 C 47.1115,55.9757 42.321,55.2226 37.9888,53.1298 36.0082,52.1734 32.8782,50.9992 31.6945,48.8874 26.7562,40.0774 25.4392,30.3443 24.6509,20.478 25.3293,19.9114 26.022,19.3598 26.729,18.824 l -0.0241,0.3331 0.1868,3.2057 0.8663,7.8409 1.98,9.487 3.4673,8.1176 0.2537,0.2993 0.9576,0.9122 1.7025,1.2169 2.5029,1.2328 2.1898,0.7302 4.9978,1.9208 2.7433,1.258 c 1.6339,0.7977 3.4563,1.7915 4.7183,3.1745 l 1.2838,-2.4834 2.2564,-3.3886 c 2.0517,-2.5024 3.8687,-4.0651 6.8947,-4.9399 2.3097,-0.6673 5.1625,0.5814 6.8627,2.0299 l 2.4117,2.3805 2.4647,3.3948 2.0058,3.6043 0.0176,-0.0315 c 1.8658,-2.192 4.2474,-3.1161 6.9318,-4.1287 5.4536,-2.0568 11.6059,-3.7088 15.3496,-8.4793 l -0.0932,-0.0405 3.1275,-9.9774 1.8257,-9.8382 0.0338,-7.6924 c 0.3518,0.2671 0.7004,0.5383 1.0465,0.8139 l -0.1627,6.9905 -2.0914,9.9014 -2.41,7.1464 -1.1829,2.7372 -0.0933,-0.0409 c -1.3081,2.3848 -3.2235,3.8121 -5.6281,5.1444 l -2.653,1.3762 -4.7296,2.0129 -2.0724,0.7446 -3.9421,1.8142 -1.965,1.5123 -0.4519,0.5655 c -0.2659,0.3095 -0.6037,1.8765 -1.2611,0.8586 -2.7587,-4.2721 -5.0505,-9.7214 -10.3456,-11.4015 -5.9613,-1.8913 -10.0434,6.2739 -12.1436,10.3119 -0.2526,0.4858 -0.3147,1.1197 -0.7563,1.4437 -0.7634,0.5598 -2.084,-1.7071 -2.6549,-2.105 z"
             inkscape:connector-curvature="0" />
        </g>
        <path
           id="path3369"
           style="fill:#fff500;fill-opacity:1;fill-rule:evenodd;stroke:none"
           d="M 50.8782,58.8509 C 46.8646,56.035 42.099,55.281 37.7895,53.1859 35.8194,52.2286 32.7059,51.0531 31.5283,48.939 26.6159,40.1199 25.306,30.3763 24.5217,20.4996 c 0.6749,-0.5672 1.364,-1.1194 2.0673,-1.6557 l -0.0241,0.3333 0.1859,3.2091 0.8618,7.8494 1.9695,9.497 3.4492,8.126 0.2523,0.2997 0.9527,0.9133 1.6934,1.218 2.49,1.2342 2.1781,0.7311 4.9717,1.9227 2.7289,1.2595 c 1.6254,0.7985 3.4381,1.7932 4.6936,3.1776 l 1.277,-2.486 2.2445,-3.3919 c 2.0409,-2.5053 3.8486,-4.0697 6.8587,-4.9453 2.2975,-0.6679 5.1352,0.5819 6.8267,2.0321 l 2.3989,2.3831 2.452,3.3982 1.9953,3.6082 0.0173,-0.0315 c 1.8561,-2.1946 4.2253,-3.1195 6.8956,-4.1332 5.4249,-2.0591 11.5452,-3.7128 15.2691,-8.488 l -0.0927,-0.0408 3.111,-9.9879 1.8161,-9.8487 0.0338,-7.7003 c 0.3498,0.2673 0.6967,0.5388 1.0409,0.8146 l -0.1619,6.9979 -2.0803,9.9119 -2.3973,7.1538 -1.1767,2.7403 -0.0929,-0.0408 c -1.3014,2.387 -3.2066,3.816 -5.5988,5.1497 l -2.639,1.3776 -4.7047,2.0149 -2.0616,0.7455 -3.9215,1.8161 -1.9547,1.514 -0.4493,0.5661 c -0.2645,0.3098 -0.6007,1.8785 -1.2546,0.8595 -2.7443,-4.2767 -5.0239,-9.7316 -10.2915,-11.4137 -5.9298,-1.8933 -9.9907,6.2807 -12.0798,10.3229 -0.2512,0.4864 -0.313,1.1208 -0.7524,1.4451 -0.7594,0.5604 -2.0729,-1.7087 -2.641,-2.1073"
           inkscape:connector-curvature="0" />
        <g
           transform="scale(0.99476,1.00106)"
           id="g3371">
          <path
             id="path3373"
             style="fill:none;stroke:#fff500;stroke-width:0.21600001;stroke-linecap:round;stroke-linejoin:round;stroke-miterlimit:22.92558479;stroke-opacity:1;stroke-dasharray:none"
             d="m 49.9178,74.5917 c 2.1566,-6.9429 6.0032,-15.6101 14.1288,-17.0223 6.633,-1.1526 12.4619,5.9303 14.8884,11.128 0.8061,1.7268 0.854,5.2633 2.171,6.5897 1.3331,1.3422 1.5869,4.2392 1.6092,5.9788 l -0.0799,0.538 -0.3889,-0.004 -0.43,0.2543 c -0.7657,0.7982 0.4963,3.5861 0.5077,3.659 0.7239,4.6454 0.9459,9.3824 -2.314,13.1743 -2.0267,2.3575 -4.6431,3.185 -7.3794,4.4583 l -0.1567,0.0839 c -0.4635,-0.0232 -0.9703,0.1094 -1.3303,0.3359 -0.3677,0.008 -0.7376,0.1372 -0.9709,0.3801 l -0.129,0.1585 -0.0638,0.0898 c -0.4895,0.2033 -0.9847,0.6223 -1.252,0.8669 -0.6103,0.5584 -1.1804,1.1701 -1.6348,1.8612 l -0.4357,0.7858 -0.102,0.2917 -0.1604,-0.1262 c -0.3314,-0.2931 -0.908,-0.9612 -1.4219,-0.9998 -0.0142,-0.826 -0.2812,-1.4845 -1.4122,-1.3762 -0.0879,0.009 -0.1746,0.0315 -0.2583,0.0649 -0.2704,-0.4521 -0.5941,-0.6794 -1.3064,-0.3203 -0.11,0.055 -0.2237,0.1196 -0.326,0.1962 -0.5267,0.102 -1.1115,0.4566 -1.3312,0.8668 -2.6127,-2.3338 -6.0205,-3.488 -8.3143,-6.3825 -2.8539,-3.6017 -3.3514,-6.7697 -3.0725,-11.3252 0.0454,-0.7422 2.6045,-7.0453 -0.1326,-6.4449 -0.7719,0.1692 -0.6307,-1.5367 -0.5913,-1.883 0.2259,-1.9832 0.3753,-4.2557 1.7405,-5.8063 l -0.0511,-0.0714 z m 0,0 -0.051,-0.0714 -0.4105,0.3149 -0.4543,0.5428 -0.425,0.8207 -0.3225,1.1457 0.0056,-0.0263 -0.2712,0.9932 -0.3858,2.107 -0.0406,0.5539 c -0.0561,0.7744 0.0953,2.094 1.1166,2.1303 l 0.1763,-0.0088 -0.87,5.6293 -0.1269,4.1224 0.2613,2.3077 0.2078,0.7583 1.1415,2.6821 1.5528,2.3363 1.7762,1.9647 1.8295,1.5982 3.1527,2.1212 1.216,0.6321 0.5349,0.568 0.5015,0.4624 0.2208,0.1698 c 0.3081,0.2236 0.7206,0.3248 1.065,0.2469 l 0.002,0.002 0.3603,0.3147 0.551,0.159 c 0.3135,-0.0417 0.6027,-0.2968 0.6888,-0.5998 l 0.1956,0.0726 0.0029,0 0.0541,0.0618 0.8178,0.7171 0.5289,0.347 0.5619,0.5975 0.6012,0.4995 0.4445,0.3016 c 0.6182,0.3577 1.4788,0.1494 1.5063,-0.6429 0.5522,-0.4496 0.6508,-1.7555 1.0619,-2.3445 l 0.3982,-0.5236 0.6372,-0.6401 c 0.0879,0.0219 0.1789,0.0307 0.2708,0.0224 l 0.6267,-0.2956 0.0969,-0.1083 0.5327,-0.1947 0.5748,-0.5276 0.1231,-0.1219 c 0.0722,0.0324 0.1482,0.0559 0.227,0.0701 l 0.709,-0.1783 0.3801,-0.2804 0.1961,-0.1584 3.5703,-1.4174 2.6271,-1.6792 1.52,-1.3864 0.4799,-0.5653 1.6407,-2.4344 0.9887,-2.6359 0.4544,-2.6779 0.0516,-2.6011 -0.6171,-4.5337 -0.5298,-1.8893 c 0.665,-0.4328 0.877,-1.3252 0.885,-2.0982 l -0.0553,-1.137 -0.3643,-2.0812 -0.2452,-0.966 0.0227,0.104 L 83.5764,75.972 83.1189,75.0096 82.5973,74.3285 82.366,74.1283 81.6761,71.22 80.3733,68.0083 78.6124,64.9526 c -3.803,-5.667 -11.9347,-11.7527 -18.7566,-6.9778 -3.6859,2.5801 -6.5622,5.8751 -8.3389,10.0539 l -1.5991,6.5628 z m -1.5902,21.3197 0.0048,0.0173 -0.0173,-0.0468 0.0125,0.0295 z m 33.338,4.2828 0.0504,-0.0595 -0.0629,0.078 0.0125,-0.0185 z"
             inkscape:connector-curvature="0" />
        </g>
        <path
           id="path3375"
           style="fill:#fff500;fill-opacity:1;fill-rule:evenodd;stroke:none"
           d="m 49.6562,74.6705 c 2.1452,-6.9502 5.9717,-15.6265 14.0547,-17.0402 6.5982,-1.154 12.3965,5.9366 14.8102,11.1396 0.8019,1.7289 0.8495,5.2691 2.1597,6.5968 1.3261,1.3436 1.5786,4.2438 1.6007,5.9851 l -0.0793,0.5386 -0.387,-0.004 -0.4277,0.2545 c -0.7617,0.7991 0.4938,3.5901 0.5051,3.663 0.72,4.6502 0.9408,9.3923 -2.302,13.1882 -2.016,2.3601 -4.6188,3.1884 -7.3406,4.4631 l -0.1559,0.0839 c -0.4612,-0.0232 -0.9652,0.1094 -1.3235,0.3362 -0.3657,0.008 -0.7336,0.1375 -0.9657,0.3807 l -0.1282,0.1585 -0.0635,0.0898 c -0.487,0.2035 -0.9796,0.6231 -1.2455,0.868 -0.6072,0.559 -1.1741,1.1713 -1.6263,1.8632 l -0.4334,0.7866 -0.1014,0.292 -0.1596,-0.1264 c -0.3297,-0.2934 -0.9032,-0.9621 -1.4145,-1.001 -0.0139,-0.8268 -0.2795,-1.4859 -1.4046,-1.3776 -0.0876,0.009 -0.1738,0.0315 -0.2571,0.0652 -0.269,-0.4527 -0.591,-0.6803 -1.2994,-0.3209 -0.1094,0.0553 -0.2225,0.1199 -0.3243,0.1965 -0.5241,0.102 -1.1058,0.4572 -1.3243,0.8676 -2.5991,-2.336 -5.9891,-3.4917 -8.2707,-6.389 -2.8389,-3.6056 -3.3338,-6.777 -3.0563,-11.3374 0.0451,-0.7427 2.5909,-7.0526 -0.1321,-6.4517 -0.7679,0.1695 -0.6273,-1.538 -0.5882,-1.885 0.2248,-1.9851 0.3734,-4.2602 1.7314,-5.8122 l -0.0507,-0.0717 z m 0,0 -0.0508,-0.0714 -0.4084,0.3152 -0.4519,0.5434 -0.4226,0.8215 -0.3209,1.1472 0.0057,-0.0267 -0.2699,0.9944 -0.3838,2.1093 -0.0405,0.5544 c -0.0559,0.7753 0.0949,2.0962 1.1109,2.1325 l 0.1754,-0.0088 -0.8654,5.6353 -0.1264,4.1267 0.2599,2.3102 0.2067,0.7592 1.1355,2.6849 1.5446,2.3389 1.7671,1.9667 1.8199,1.5998 3.136,2.1235 1.2098,0.6327 0.532,0.5686 0.4989,0.4629 0.2197,0.1701 c 0.3065,0.2236 0.7166,0.3251 1.0593,0.2472 l 0.002,0.002 0.3583,0.315 0.5482,0.159 c 0.3119,-0.0417 0.5996,-0.2971 0.6852,-0.6004 l 0.1947,0.0726 0.0029,0 0.0538,0.062 0.8136,0.7178 0.5261,0.3475 0.5587,0.5981 0.5981,0.5 0.4422,0.3019 c 0.6151,0.3581 1.4712,0.1494 1.4984,-0.6437 0.5493,-0.4499 0.6474,-1.7572 1.0565,-2.3468 l 0.396,-0.5241 0.6338,-0.641 c 0.0876,0.0219 0.178,0.0307 0.2693,0.0224 l 0.6236,-0.2959 0.0964,-0.1083 0.5298,-0.195 0.572,-0.5281 0.1222,-0.1219 c 0.072,0.0323 0.1477,0.0559 0.2259,0.07 l 0.7053,-0.1786 0.3781,-0.2806 0.195,-0.1584 3.5515,-1.4191 2.6136,-1.6809 1.512,-1.3879 0.4773,-0.5657 1.6319,-2.437 0.9837,-2.6388 0.4521,-2.6807 0.0513,-2.6039 -0.614,-4.5385 -0.5269,-1.8913 c 0.6616,-0.4332 0.8725,-1.3266 0.8804,-2.1005 L 84.041,80.2713 83.6785,78.1878 83.4347,77.2209 83.4571,77.325 83.1382,76.0522 82.6832,75.089 82.1645,74.407 81.9343,74.2069 81.248,71.2954 79.952,68.0803 78.2002,65.0212 C 74.4174,59.3482 66.3282,53.256 59.542,58.0361 55.8754,60.619 53.0141,63.9174 51.2467,68.1007 l -1.5905,6.5696 z m -1.582,21.3424 0.0048,0.0172 -0.017,-0.0467 0.0122,0.0295 z m 33.1633,4.2874 0.0502,-0.0596 -0.0626,0.078 0.0124,-0.0184 z"
           inkscape:connector-curvature="0" />
        <path
           id="path3377"
           style="fill:#fff500;fill-opacity:1;fill-rule:evenodd;stroke:#fff500;stroke-width:0.21600001;stroke-linecap:butt;stroke-linejoin:miter;stroke-miterlimit:22.92558479;stroke-opacity:1;stroke-dasharray:none"
           d="m 65.2051,114.694 c 6.2957,-1.0828 12.5433,-2.6039 18.9042,-3.1439 2.3361,-0.1981 -4.4997,1.4088 -6.8159,1.7479 -4.0141,0.5876 -8.0552,0.9669 -12.0883,1.396 -0.0352,0.004 0.0343,-0.1017 0,-0.1086 -7.7607,-1.5635 -15.7683,-2.1106 -23.3025,-4.5853 C 24.9134,104.4198 10.8471,89.157 6.8922,70.8299 2.0854,48.5586 13.39,26.7409 32.0227,15.4485 58.1505,-0.3869 95.5318,4.5658 114.4514,29.9293 c 8.6799,11.6365 12.1796,26.5099 9.0742,40.9028 -3.1042,14.3878 -12.789,26.5862 -24.8882,34.092 -4.5428,2.8188 -9.5419,4.7367 -14.5281,6.626 -1.4819,0.5616 3.183,-0.2526 4.6775,-0.7778 17.2352,-6.0585 31.9376,-20.9727 36.1227,-39.6088 5.1582,-22.9677 -6.3626,-45.6182 -25.537,-57.42 C 72.4062,-2.8536 33.9511,2.406 14.5514,28.8173 5.6653,40.915 2.1586,56.3136 5.493,71.1652 c 3.2972,14.686 13.3058,27.1049 25.7859,34.6141 6.6807,4.0201 14.0666,7.0541 21.7346,8.1066 4.0388,0.5541 8.1253,0.6474 12.1916,0.917 0.0348,0.002 -0.0346,-0.1029 0,-0.1089 z"
           inkscape:connector-curvature="0" />
      </g>
    </g>
  </g>
</svg>
