<?xml version="1.0" encoding="UTF-8" standalone="no"?>
<!-- Created with Inkscape (http://www.inkscape.org/) -->

<svg
   xmlns:dc="http://purl.org/dc/elements/1.1/"
   xmlns:cc="http://creativecommons.org/ns#"
   xmlns:rdf="http://www.w3.org/1999/02/22-rdf-syntax-ns#"
   xmlns:svg="http://www.w3.org/2000/svg"
   xmlns="http://www.w3.org/2000/svg"
   xmlns:sodipodi="http://sodipodi.sourceforge.net/DTD/sodipodi-0.dtd"
   xmlns:inkscape="http://www.inkscape.org/namespaces/inkscape"
   width="162.99213"
   height="31.889763"
   id="svg2"
   version="1.1"
   inkscape:version="0.48.4 r9939"
   sodipodi:docname="text 1.3.svg">
  <defs
     id="defs4" />
  <sodipodi:namedview
     id="base"
     pagecolor="#ffffff"
     bordercolor="#666666"
     borderopacity="1.0"
     inkscape:pageopacity="0.0"
     inkscape:pageshadow="2"
     inkscape:zoom="5.6"
     inkscape:cx="68.2827"
     inkscape:cy="1.8995567"
     inkscape:document-units="mm"
     inkscape:current-layer="layer1"
     showgrid="false"
     inkscape:window-width="1311"
     inkscape:window-height="747"
     inkscape:window-x="55"
     inkscape:window-y="21"
     inkscape:window-maximized="1"
     units="mm"
     showguides="true"
     inkscape:guide-bbox="true"
     inkscape:snap-page="false" />
  <metadata
     id="metadata7">
    <rdf:RDF>
      <cc:Work
         rdf:about="">
        <dc:format>image/svg+xml</dc:format>
        <dc:type
           rdf:resource="http://purl.org/dc/dcmitype/StillImage" />
        <dc:title></dc:title>
      </cc:Work>
    </rdf:RDF>
  </metadata>
  <g
     inkscape:label="Layer 1"
     inkscape:groupmode="layer"
     id="layer1"
     transform="translate(0,-1020.4724)">
    <g
       transform="matrix(1.25,0,0,-1.25,-2.8965178,1053.6503)"
       inkscape:label="text 1.1"
       id="g3321">
      <path
         id="path3323"
         style="fill:#fff500;fill-opacity:1;fill-rule:nonzero;stroke:none"
         d="M 13.5751,12.5532 C 13.2551,11.8174 12.9231,11.1254 12.579,10.4774 12.2352,9.8294 11.827,9.2653 11.355,8.7854 10.8831,8.3052 10.315,7.9294 9.6511,7.6572 8.987,7.3854 8.1672,7.2493 7.1909,7.2493 6.999,7.2493 6.7989,7.2612 6.5911,7.2853 6.3831,7.3094 6.1829,7.3414 5.991,7.3814 5.7991,7.4214 5.631,7.4653 5.487,7.5132 5.343,7.5614 5.239,7.6093 5.1749,7.6572 L 5.5831,9.6253 C 5.7909,9.5454 6.0429,9.4654 6.3391,9.3852 6.6351,9.3053 6.9429,9.2653 7.2629,9.2653 c 0.4802,0 0.9,0.0601 1.26,0.18 0.36,0.1199 0.684,0.288 0.972,0.504 0.288,0.216 0.5443,0.4799 0.7682,0.792 0.224,0.3121 0.44,0.6599 0.648,1.044 -0.7041,1.1361 -1.368,2.268 -1.9922,3.3959 -0.6239,1.1282 -1.1999,2.2201 -1.728,3.276 -0.5278,1.0562 -1.008,2.0602 -1.44,3.0121 -0.432,0.9522 -0.8158,1.8281 -1.152,2.628 l 2.6402,0 c 0.5278,-1.3918 1.2039,-2.944 2.0279,-4.6559 0.8241,-1.7121 1.7399,-3.5042 2.7479,-5.3762 0.6401,1.4562 1.2521,3.06 1.836,4.8121 0.5842,1.7521 1.1322,3.492 1.6441,5.22 l 2.52,0 c -0.3679,-1.152 -0.7359,-2.2359 -1.1038,-3.2519 -0.3682,-1.0159 -0.7361,-1.9922 -1.1041,-2.9282 -0.3679,-0.936 -0.7361,-1.8479 -1.1041,-2.736 -0.3679,-0.8878 -0.7441,-1.764 -1.1279,-2.628 z M 25.5512,7.1773 c -1.008,0 -1.8918,0.1599 -2.6521,0.4799 -0.76,0.3201 -1.4,0.7682 -1.9199,1.3442 -0.5199,0.576 -0.9079,1.26 -1.1639,2.052 -0.256,0.792 -0.3841,1.6679 -0.3841,2.628 0,0.9598 0.14,1.84 0.4201,2.6399 0.2798,0.8 0.6758,1.4922 1.188,2.0761 0.5119,0.584 1.1398,1.04 1.8839,1.368 0.7441,0.328 1.5721,0.4921 2.484,0.4921 0.5601,0 1.12,-0.0482 1.6801,-0.144 0.5598,-0.0961 1.0959,-0.248 1.6078,-0.4561 l -0.504,-1.8961 c -0.3359,0.1602 -0.724,0.288 -1.1639,0.3841 -0.4399,0.0958 -0.9079,0.144 -1.404,0.144 -1.2481,0 -2.2039,-0.392 -2.8681,-1.1761 -0.6639,-0.784 -0.9958,-1.9278 -0.9958,-3.4319 0,-0.6721 0.076,-1.288 0.2279,-1.8482 0.1519,-0.5598 0.392,-1.04 0.72,-1.44 0.328,-0.3999 0.7481,-0.7078 1.26,-0.9238 0.5119,-0.216 1.1361,-0.324 1.872,-0.324 0.5922,0 1.1279,0.0559 1.6081,0.1678 0.4799,0.112 0.8561,0.2322 1.1279,0.36 l 0.3121,-1.872 C 28.7592,7.7213 28.5752,7.6453 28.3351,7.5733 28.0953,7.5013 27.8232,7.4373 27.5193,7.3814 27.2151,7.3253 26.8911,7.2774 26.5473,7.2374 26.2032,7.1974 25.8712,7.1773 25.5512,7.1773 z m 14.544,12.7681 0,-1.872 -4.0561,0 0,-10.6081 -2.232,0 0,10.6081 -4.0558,0 0,1.872 10.3439,0 z m 10.9681,-6.264 c 0,1.4559 -0.36,2.5759 -1.08,3.3599 -0.72,0.7841 -1.6801,1.1761 -2.88,1.1761 -0.6721,0 -1.1959,-0.0241 -1.5721,-0.072 -0.3759,-0.0482 -0.6758,-0.104 -0.9,-0.1681 l 0,-7.8721 c 0.2721,-0.2239 0.6642,-0.4399 1.1761,-0.648 0.5119,-0.2078 1.0721,-0.3118 1.6801,-0.3118 0.6401,0 1.188,0.116 1.6438,0.3478 0.4561,0.2322 0.828,0.5522 1.116,0.9601 0.288,0.4079 0.4961,0.8881 0.6242,1.44 0.1278,0.5519 0.1919,1.1481 0.1919,1.7881 z m 2.3281,0 c 0,-0.9439 -0.1242,-1.8161 -0.3719,-2.6161 -0.248,-0.7999 -0.6123,-1.4879 -1.0922,-2.0639 -0.4799,-0.576 -1.0681,-1.0241 -1.764,-1.3442 -0.6959,-0.32 -1.4919,-0.4799 -2.3879,-0.4799 -0.72,0 -1.3561,0.0961 -1.908,0.288 -0.5522,0.1919 -0.9641,0.3759 -1.2362,0.5519 l 0,-4.9918 -2.232,0 0,16.5359 c 0.5281,0.1281 1.188,0.2682 1.98,0.4201 0.792,0.152 1.7082,0.2279 2.7482,0.2279 0.9598,0 1.8238,-0.1519 2.592,-0.4558 0.7679,-0.3041 1.4238,-0.7361 1.9678,-1.2963 0.5443,-0.5598 0.9641,-1.2438 1.2603,-2.052 0.2959,-0.8078 0.4439,-1.7158 0.4439,-2.7238 z m 14.1602,0.0238 c 0,-0.9918 -0.144,-1.8878 -0.432,-2.6878 -0.288,-0.8002 -0.6922,-1.4882 -1.2121,-2.0642 -0.5202,-0.576 -1.1401,-1.0199 -1.8601,-1.332 -0.72,-0.3118 -1.5041,-0.468 -2.3519,-0.468 -0.8481,0 -1.6322,0.1562 -2.3522,0.468 -0.72,0.3121 -1.3399,0.756 -1.8598,1.332 -0.5202,0.576 -0.9241,1.264 -1.2121,2.0642 -0.288,0.8 -0.432,1.696 -0.432,2.6878 0,0.9763 0.144,1.8681 0.432,2.6762 0.288,0.8079 0.6919,1.4998 1.2121,2.0758 0.5199,0.576 1.1398,1.0202 1.8598,1.3323 0.72,0.3118 1.5041,0.468 2.3522,0.468 0.8478,0 1.6319,-0.1562 2.3519,-0.468 0.72,-0.3121 1.3399,-0.7563 1.8601,-1.3323 0.5199,-0.576 0.9241,-1.2679 1.2121,-2.0758 0.288,-0.8081 0.432,-1.6999 0.432,-2.6762 z m -2.3281,0 c 0,1.4083 -0.3161,2.5243 -0.9482,3.348 -0.6318,0.8241 -1.4919,1.2362 -2.5798,1.2362 -1.0879,0 -1.948,-0.4121 -2.5801,-1.2362 -0.6321,-0.8237 -0.9479,-1.9397 -0.9479,-3.348 0,-1.4079 0.3158,-2.5239 0.9479,-3.348 0.6321,-0.824 1.4922,-1.2359 2.5801,-1.2359 1.0879,0 1.948,0.4119 2.5798,1.2359 0.6321,0.8241 0.9482,1.9401 0.9482,3.348 z m 15.9602,6.2402 0,-12.4801 -2.16,0 0,9.504 c -0.4802,-0.608 -1.008,-1.3201 -1.584,-2.1359 -0.576,-0.8161 -1.152,-1.66 -1.728,-2.5322 -0.576,-0.8719 -1.1282,-1.7319 -1.656,-2.5798 -0.5281,-0.8481 -0.9842,-1.6001 -1.368,-2.2561 l -1.9922,0 0,12.4801 2.16,0 0,-8.9762 c 0.4161,0.6883 0.8881,1.4443 1.4162,2.268 0.5278,0.8241 1.076,1.6402 1.6438,2.448 0.5681,0.8082 1.1361,1.584 1.7042,2.3281 0.568,0.7441 1.0998,1.3881 1.5959,1.9321 l 1.9681,0 z m -5.2322,2.016 c -1.008,0 -1.8278,0.256 -2.4599,0.7679 -0.6319,0.512 -1.012,1.224 -1.1401,2.1362 l 1.7042,0.4558 c 0.1278,-0.5119 0.3438,-0.928 0.648,-1.2478 0.3039,-0.32 0.72,-0.4802 1.2478,-0.4802 0.5281,0 0.9442,0.1602 1.2481,0.4802 0.3041,0.3198 0.5201,0.7359 0.648,1.2478 l 1.6801,-0.4558 c -0.1281,-0.9122 -0.504,-1.6242 -1.1282,-2.1362 -0.6239,-0.5119 -1.44,-0.7679 -2.448,-0.7679 z M 90.4476,7.1773 c -1.008,0 -1.8919,0.1599 -2.6521,0.4799 -0.76,0.3201 -1.4,0.7682 -1.9199,1.3442 -0.5199,0.576 -0.9079,1.26 -1.1639,2.052 -0.256,0.792 -0.3841,1.6679 -0.3841,2.628 0,0.9598 0.14,1.84 0.4201,2.6399 0.2798,0.8 0.6758,1.4922 1.188,2.0761 0.5119,0.584 1.1398,1.04 1.8839,1.368 0.7441,0.328 1.5721,0.4921 2.484,0.4921 0.5601,0 1.12,-0.0482 1.6801,-0.144 0.5598,-0.0961 1.0959,-0.248 1.6078,-0.4561 l -0.504,-1.8961 c -0.3359,0.1602 -0.724,0.288 -1.1639,0.3841 -0.4399,0.0958 -0.9079,0.144 -1.404,0.144 -1.2481,0 -2.2039,-0.392 -2.8681,-1.1761 -0.6639,-0.784 -0.9958,-1.9278 -0.9958,-3.4319 0,-0.6721 0.076,-1.288 0.2279,-1.8482 0.1519,-0.5598 0.392,-1.04 0.72,-1.44 0.328,-0.3999 0.7481,-0.7078 1.26,-0.9238 0.5119,-0.216 1.1361,-0.324 1.872,-0.324 0.5921,0 1.1279,0.0559 1.6081,0.1678 0.4799,0.112 0.856,0.2322 1.1279,0.36 l 0.3121,-1.872 C 93.6556,7.7213 93.4716,7.6453 93.2315,7.5733 92.9917,7.5013 92.7196,7.4373 92.4157,7.3814 92.1115,7.3253 91.7875,7.2774 91.4437,7.2374 91.0996,7.1974 90.7676,7.1773 90.4476,7.1773 z m 14.544,12.7681 0,-1.872 -4.0561,0 0,-10.6081 -2.232,0 0,10.6081 -4.0558,0 0,1.872 10.3439,0 z m 4.4881,-10.8 c 0.0961,-0.0161 0.2321,-0.032 0.4079,-0.0482 0.176,-0.0158 0.3761,-0.0278 0.6001,-0.036 0.2239,-0.0079 0.46,-0.0158 0.7081,-0.0238 0.248,-0.0082 0.4839,-0.0122 0.7078,-0.0122 0.464,0 0.9082,0.0321 1.332,0.0961 0.4241,0.0641 0.792,0.1761 1.1041,0.3359 0.3121,0.1602 0.5601,0.3722 0.7441,0.6361 0.1839,0.2639 0.2758,0.6041 0.2758,1.0199 0,0.4003 -0.0839,0.7322 -0.252,0.9961 -0.1678,0.2639 -0.396,0.476 -0.684,0.6361 -0.288,0.1599 -0.6279,0.2719 -1.0199,0.3359 -0.392,0.0641 -0.8119,0.0961 -1.26,0.0961 l -2.664,0 0,-4.032 z m 2.376,5.688 c 0.432,0 0.828,0.0281 1.188,0.0839 0.36,0.0561 0.6721,0.1559 0.936,0.2999 0.2639,0.144 0.472,0.3362 0.6239,0.576 0.1522,0.2401 0.2282,0.5443 0.2282,0.9122 0,0.3838 -0.0961,0.688 -0.288,0.9119 -0.1922,0.224 -0.4442,0.396 -0.756,0.5159 -0.3121,0.1202 -0.6642,0.2002 -1.0562,0.2401 -0.3918,0.04 -0.7878,0.0601 -1.188,0.0601 -0.3679,0 -0.7399,-0.0079 -1.116,-0.0241 -0.3759,-0.0159 -0.6919,-0.032 -0.9479,-0.0479 l 0,-3.528 2.376,0 z m -0.0479,-7.5841 c -0.944,0 -1.8162,0.044 -2.6161,0.1321 -0.8,0.0879 -1.4321,0.188 -1.8961,0.2999 l 0,12.1442 c 0.464,0.112 1.0961,0.2118 1.8961,0.2999 0.7999,0.0879 1.6721,0.1321 2.6161,0.1321 0.6559,0 1.296,-0.0561 1.9199,-0.1681 0.6239,-0.112 1.1761,-0.2999 1.656,-0.5641 0.4799,-0.2639 0.868,-0.6239 1.1639,-1.08 0.2962,-0.4561 0.4442,-1.0199 0.4442,-1.692 0,-0.608 -0.152,-1.1279 -0.4561,-1.5599 -0.3039,-0.432 -0.7121,-0.7682 -1.224,-1.008 0.688,-0.2401 1.2359,-0.5961 1.6441,-1.0681 0.4079,-0.4719 0.612,-1.1319 0.612,-1.98 0,-0.752 -0.148,-1.3759 -0.4442,-1.872 -0.2959,-0.496 -0.7039,-0.896 -1.224,-1.1999 -0.5199,-0.3041 -1.1319,-0.5162 -1.836,-0.6361 -0.7039,-0.1199 -1.4559,-0.18 -2.2558,-0.18 z m 19.6563,6.4559 c 0,-0.9918 -0.144,-1.8878 -0.432,-2.6878 -0.288,-0.8002 -0.6923,-1.4882 -1.2121,-2.0642 -0.5202,-0.576 -1.1401,-1.0199 -1.8601,-1.332 -0.72,-0.3118 -1.5041,-0.468 -2.3519,-0.468 -0.8482,0 -1.6322,0.1562 -2.3522,0.468 -0.72,0.3121 -1.34,0.756 -1.8598,1.332 -0.5202,0.576 -0.9241,1.264 -1.2121,2.0642 -0.288,0.8 -0.432,1.696 -0.432,2.6878 0,0.9763 0.144,1.8681 0.432,2.6762 0.288,0.8079 0.6919,1.4998 1.2121,2.0758 0.5198,0.576 1.1398,1.0202 1.8598,1.3323 0.72,0.3118 1.504,0.468 2.3522,0.468 0.8478,0 1.6319,-0.1562 2.3519,-0.468 0.72,-0.3121 1.3399,-0.7563 1.8601,-1.3323 0.5198,-0.576 0.9241,-1.2679 1.2121,-2.0758 0.288,-0.8081 0.432,-1.6999 0.432,-2.6762 z m -2.3281,0 c 0,1.4083 -0.3161,2.5243 -0.9482,3.348 -0.6319,0.8241 -1.4919,1.2362 -2.5798,1.2362 -1.088,0 -1.948,-0.4121 -2.5801,-1.2362 -0.6322,-0.8237 -0.9479,-1.9397 -0.9479,-3.348 0,-1.4079 0.3157,-2.5239 0.9479,-3.348 0.6321,-0.824 1.4921,-1.2359 2.5801,-1.2359 1.0879,0 1.9479,0.4119 2.5798,1.2359 0.6321,0.8241 0.9482,1.9401 0.9482,3.348"
         inkscape:connector-curvature="0" />
    </g>
  </g>
</svg>
