<?xml version="1.0" encoding="UTF-8" standalone="no"?>
<!-- Created with Inkscape (http://www.inkscape.org/) -->

<svg
   xmlns:dc="http://purl.org/dc/elements/1.1/"
   xmlns:cc="http://creativecommons.org/ns#"
   xmlns:rdf="http://www.w3.org/1999/02/22-rdf-syntax-ns#"
   xmlns:svg="http://www.w3.org/2000/svg"
   xmlns="http://www.w3.org/2000/svg"
   xmlns:sodipodi="http://sodipodi.sourceforge.net/DTD/sodipodi-0.dtd"
   xmlns:inkscape="http://www.inkscape.org/namespaces/inkscape"
   width="113.38583"
   height="28.346457"
   id="svg2"
   version="1.1"
   inkscape:version="0.48.4 r9939"
   sodipodi:docname="text 1.1.svg">
  <defs
     id="defs4" />
  <sodipodi:namedview
     id="base"
     pagecolor="#ffffff"
     bordercolor="#666666"
     borderopacity="1.0"
     inkscape:pageopacity="0.0"
     inkscape:pageshadow="2"
     inkscape:zoom="5.6"
     inkscape:cx="68.2827"
     inkscape:cy="1.8995567"
     inkscape:document-units="mm"
     inkscape:current-layer="layer1"
     showgrid="false"
     inkscape:window-width="1311"
     inkscape:window-height="747"
     inkscape:window-x="55"
     inkscape:window-y="21"
     inkscape:window-maximized="1"
     units="mm"
     showguides="true"
     inkscape:guide-bbox="true"
     inkscape:snap-page="false" />
  <metadata
     id="metadata7">
    <rdf:RDF>
      <cc:Work
         rdf:about="">
        <dc:format>image/svg+xml</dc:format>
        <dc:type
           rdf:resource="http://purl.org/dc/dcmitype/StillImage" />
        <dc:title></dc:title>
      </cc:Work>
    </rdf:RDF>
  </metadata>
  <g
     inkscape:label="Layer 1"
     inkscape:groupmode="layer"
     id="layer1"
     transform="translate(0,-1024.0157)">
    <g
       transform="matrix(1.25,0,0,-1.25,-6.9935983,1051.7141)"
       inkscape:label="text 1.2"
       id="g3255">
      <path
         id="path3257"
         style="fill:#fff500;fill-opacity:1;fill-rule:nonzero;stroke:none"
         d="m 16.7873,19.7867 0,-2.016 -7.4401,0 0,-14.616 -2.3281,0 0,16.632 9.7682,0 z m 6.6481,-6.0239 c 0,-0.5281 -0.0119,-1.0922 -0.036,-1.692 -0.0241,-0.6001 -0.068,-1.2002 -0.1321,-1.8 C 23.2036,9.6707 23.1154,9.0788 23.0034,8.4946 22.8915,7.9106 22.7475,7.3627 22.5714,6.8508 22.3954,6.3386 22.1754,5.8586 21.9115,5.4108 21.6473,4.9626 21.3233,4.5666 20.9395,4.2228 20.5554,3.8786 20.1076,3.5906 19.5953,3.3588 19.0834,3.1266 18.4833,2.9786 17.7953,2.9146 l -0.3118,1.872 c 0.7838,0.1601 1.404,0.4561 1.8598,0.8881 0.4561,0.432 0.8201,0.9601 1.0922,1.584 0.2398,0.5439 0.4159,1.1599 0.5278,1.8479 0.112,0.6882 0.1922,1.404 0.2401,2.1481 0.0479,0.7441 0.076,1.4921 0.0839,2.2439 0.0083,0.752 0.0122,1.4641 0.0122,2.1362 l 8.3041,0 0,-12.4801 -2.2323,0 0,10.6081 -3.9359,0 z m 14.2322,-9 c 0.5278,0 0.9958,0.0119 1.404,0.036 0.4079,0.0238 0.7481,0.068 1.0199,0.1318 l 0,3.7202 c -0.1598,0.0799 -0.4201,0.1479 -0.7801,0.2038 -0.36,0.0561 -0.7959,0.0842 -1.3079,0.0842 -0.3359,0 -0.6919,-0.0241 -1.0681,-0.072 -0.3758,-0.0482 -0.72,-0.148 -1.0318,-0.3002 -0.3121,-0.152 -0.572,-0.36 -0.7801,-0.6239 -0.208,-0.2639 -0.3121,-0.612 -0.3121,-1.044 0,-0.8 0.256,-1.3561 0.7682,-1.6679 0.512,-0.3121 1.2079,-0.468 2.088,-0.468 z m -0.1922,11.1841 c 0.8961,0 1.6521,-0.1163 2.268,-0.3481 0.6163,-0.2322 1.1121,-0.5602 1.4882,-0.9842 0.3759,-0.4238 0.6441,-0.9278 0.8039,-1.512 0.1602,-0.584 0.2401,-1.228 0.2401,-1.9318 l 0,-7.8001 c -0.1922,-0.0321 -0.46,-0.076 -0.8042,-0.1321 -0.3438,-0.0559 -0.7319,-0.108 -1.1639,-0.1559 -0.432,-0.0479 -0.9,-0.0921 -1.404,-0.1321 -0.504,-0.04 -1.004,-0.0598 -1.5001,-0.0598 -0.7038,0 -1.3518,0.072 -1.944,0.216 -0.5918,0.144 -1.1038,0.3719 -1.5358,0.684 -0.432,0.3118 -0.7682,0.7239 -1.008,1.2359 -0.2401,0.5119 -0.36,1.1279 -0.36,1.8479 0,0.6882 0.1401,1.2801 0.4198,1.7762 0.2801,0.496 0.6602,0.896 1.1401,1.1999 0.4799,0.3041 1.0401,0.5281 1.6801,0.6721 0.6401,0.144 1.3119,0.216 2.016,0.216 0.224,0 0.4558,-0.0122 0.6959,-0.036 0.2401,-0.0241 0.468,-0.0562 0.684,-0.0961 0.216,-0.04 0.404,-0.076 0.5641,-0.108 0.1599,-0.0321 0.2719,-0.0559 0.3359,-0.072 l 0,0.6239 c 0,0.3682 -0.0399,0.7322 -0.1199,1.0922 -0.0799,0.36 -0.2239,0.68 -0.432,0.9598 -0.208,0.28 -0.4921,0.504 -0.8521,0.6721 -0.36,0.1681 -0.828,0.252 -1.404,0.252 -0.7358,0 -1.3799,-0.0519 -1.9321,-0.1559 -0.5519,-0.1041 -0.9637,-0.2121 -1.2359,-0.324 l -0.2639,1.8479 c 0.288,0.1281 0.7679,0.252 1.44,0.3722 0.6718,0.1199 1.4001,0.18 2.1838,0.18 z M 48.1555,4.8348 c 0.0961,-0.0162 0.2322,-0.0321 0.4079,-0.0482 0.1761,-0.0159 0.3762,-0.0278 0.6001,-0.036 0.224,-0.008 0.4601,-0.0159 0.7081,-0.0238 0.2481,-0.0082 0.4839,-0.0122 0.7078,-0.0122 0.4641,0 0.9083,0.032 1.332,0.0961 0.4241,0.064 0.792,0.176 1.1041,0.3359 0.3121,0.1601 0.5602,0.3722 0.7441,0.6361 0.184,0.2639 0.2758,0.604 0.2758,1.0199 0,0.4002 -0.0839,0.7322 -0.252,0.9961 -0.1678,0.2639 -0.396,0.4759 -0.684,0.6361 -0.288,0.1598 -0.6278,0.2718 -1.0199,0.3359 -0.392,0.064 -0.8118,0.0961 -1.26,0.0961 l -2.664,0 0,-4.032 z m 2.376,5.688 c 0.432,0 0.828,0.028 1.188,0.0839 0.36,0.0561 0.6721,0.1559 0.936,0.2999 0.2639,0.144 0.472,0.3362 0.6239,0.576 0.1523,0.2401 0.2282,0.5442 0.2282,0.9122 0,0.3838 -0.0961,0.6879 -0.288,0.9119 -0.1922,0.2239 -0.4442,0.396 -0.756,0.5159 -0.3121,0.1202 -0.6641,0.2001 -1.0562,0.2401 -0.3917,0.0399 -0.7877,0.0601 -1.188,0.0601 -0.3679,0 -0.7398,-0.008 -1.116,-0.0241 -0.3758,-0.0159 -0.6919,-0.0321 -0.9479,-0.0479 l 0,-3.528 2.376,0 z M 50.4836,2.9387 c -0.9439,0 -1.8161,0.0439 -2.6161,0.1321 -0.7999,0.0878 -1.432,0.1879 -1.8961,0.2999 l 0,12.1442 c 0.4641,0.1119 1.0962,0.2117 1.8961,0.2999 0.8,0.0878 1.6722,0.1321 2.6161,0.1321 0.656,0 1.296,-0.0562 1.9199,-0.1681 0.6239,-0.112 1.1761,-0.2999 1.656,-0.5641 0.4799,-0.2639 0.868,-0.6239 1.1639,-1.08 0.2963,-0.4561 0.4442,-1.0199 0.4442,-1.692 0,-0.6081 -0.1519,-1.1279 -0.4561,-1.5599 -0.3038,-0.432 -0.712,-0.7682 -1.224,-1.008 0.688,-0.2401 1.2359,-0.5962 1.6441,-1.0681 0.4079,-0.472 0.612,-1.1319 0.612,-1.98 0,-0.7521 -0.1479,-1.376 -0.4442,-1.872 C 55.5035,4.4586 55.0956,4.0586 54.5754,3.7548 54.0556,3.4506 53.4436,3.2386 52.7394,3.1187 52.0356,2.9988 51.2836,2.9387 50.4836,2.9387 z m 18.8643,0.216 -2.2323,0 0,5.5199 -5.76,0 0,-5.5199 -2.232,0 0,12.4801 2.232,0 0,-5.0882 5.76,0 0,5.0882 2.2323,0 0,-12.4801 z m 8.064,1.6081 c 0.5278,0 0.9958,0.0119 1.404,0.036 0.4079,0.0238 0.7481,0.068 1.0199,0.1318 l 0,3.7202 c -0.1599,0.0799 -0.4201,0.1479 -0.7801,0.2038 -0.36,0.0561 -0.796,0.0842 -1.3079,0.0842 -0.3359,0 -0.6919,-0.0241 -1.0681,-0.072 -0.3759,-0.0482 -0.72,-0.148 -1.0318,-0.3002 -0.3121,-0.152 -0.572,-0.36 -0.7801,-0.6239 -0.2081,-0.2639 -0.3121,-0.612 -0.3121,-1.044 0,-0.8 0.256,-1.3561 0.7682,-1.6679 0.5119,-0.3121 1.2078,-0.468 2.088,-0.468 z m -0.1922,11.1841 c 0.896,0 1.652,-0.1163 2.268,-0.3481 0.6163,-0.2322 1.112,-0.5602 1.4882,-0.9842 0.3759,-0.4238 0.644,-0.9278 0.8039,-1.512 0.1602,-0.584 0.2401,-1.228 0.2401,-1.9318 l 0,-7.8001 C 81.8277,3.3386 81.5598,3.2947 81.2157,3.2386 80.8719,3.1827 80.4838,3.1306 80.0518,3.0827 c -0.432,-0.0479 -0.9,-0.0921 -1.404,-0.1321 -0.504,-0.04 -1.004,-0.0598 -1.5001,-0.0598 -0.7038,0 -1.3518,0.072 -1.944,0.216 -0.5919,0.144 -1.1038,0.3719 -1.5358,0.684 -0.432,0.3118 -0.7682,0.7239 -1.008,1.2359 -0.2401,0.5119 -0.36,1.1279 -0.36,1.8479 0,0.6882 0.14,1.2801 0.4198,1.7762 0.2801,0.496 0.6602,0.896 1.1401,1.1999 0.4799,0.3041 1.04,0.5281 1.6801,0.6721 0.6401,0.144 1.3119,0.216 2.016,0.216 0.2239,0 0.4558,-0.0122 0.6959,-0.036 0.2401,-0.0241 0.468,-0.0562 0.684,-0.0961 0.216,-0.04 0.4039,-0.076 0.5641,-0.108 0.1599,-0.0321 0.2718,-0.0559 0.3359,-0.072 l 0,0.6239 c 0,0.3682 -0.04,0.7322 -0.1199,1.0922 -0.0799,0.36 -0.2239,0.68 -0.432,0.9598 -0.2081,0.28 -0.4921,0.504 -0.8521,0.6721 -0.36,0.1681 -0.828,0.252 -1.404,0.252 -0.7359,0 -1.3799,-0.0519 -1.9321,-0.1559 -0.5519,-0.1041 -0.9638,-0.2121 -1.2359,-0.324 l -0.2639,1.8479 c 0.288,0.1281 0.7679,0.252 1.44,0.3722 0.6718,0.1199 1.4,0.18 2.1838,0.18 z M 90.8759,8.0028 c -0.2401,0 -0.472,0.0039 -0.6962,0.0119 -0.2239,0.0079 -0.4399,0.0201 -0.648,0.036 -0.5119,-0.7679 -1.0037,-1.588 -1.476,-2.4599 -0.472,-0.8722 -0.8918,-1.6841 -1.26,-2.4361 l -2.2558,0 c 0.1919,0.464 0.4158,0.9399 0.6718,1.4281 0.256,0.4878 0.5162,0.9638 0.7801,1.4278 0.2639,0.464 0.5321,0.904 0.8039,1.3201 0.2721,0.4161 0.5281,0.792 0.7682,1.1279 -0.4482,0.1601 -0.8161,0.356 -1.1041,0.5882 -0.288,0.2318 -0.5199,0.4918 -0.6959,0.7798 -0.176,0.288 -0.3002,0.5961 -0.3722,0.9241 -0.072,0.3279 -0.108,0.6599 -0.108,0.9961 0,0.7038 0.1321,1.3198 0.396,1.8479 0.2642,0.5281 0.6282,0.964 1.0922,1.3079 0.464,0.3441 1.012,0.604 1.6438,0.7801 0.6321,0.176 1.3241,0.2642 2.0761,0.2642 1.0559,0 1.9519,-0.0482 2.6881,-0.144 0.7359,-0.0961 1.3518,-0.2081 1.8479,-0.3362 l 0,-12.312 -2.2079,0 0,4.8481 -1.944,0 z m 1.944,5.976 c -0.176,0.032 -0.468,0.064 -0.8762,0.0958 -0.4079,0.032 -0.8759,0.0482 -1.404,0.0482 -0.9119,0 -1.6478,-0.188 -2.2079,-0.5641 -0.5601,-0.3759 -0.8399,-0.972 -0.8399,-1.7881 0,-0.8 0.288,-1.3519 0.864,-1.656 0.576,-0.3039 1.3198,-0.4558 2.232,-0.4558 l 2.232,0 0,4.32 z"
         inkscape:connector-curvature="0" />
    </g>
  </g>
</svg>
