<?xml version="1.0" encoding="UTF-8" standalone="no"?>
<!-- Created with Inkscape (http://www.inkscape.org/) -->

<svg
   xmlns:dc="http://purl.org/dc/elements/1.1/"
   xmlns:cc="http://creativecommons.org/ns#"
   xmlns:rdf="http://www.w3.org/1999/02/22-rdf-syntax-ns#"
   xmlns:svg="http://www.w3.org/2000/svg"
   xmlns="http://www.w3.org/2000/svg"
   xmlns:sodipodi="http://sodipodi.sourceforge.net/DTD/sodipodi-0.dtd"
   xmlns:inkscape="http://www.inkscape.org/namespaces/inkscape"
   width="88.582672"
   height="28.346457"
   id="svg2"
   version="1.1"
   inkscape:version="0.48.4 r9939"
   sodipodi:docname="text 1.2.svg">
  <defs
     id="defs4" />
  <sodipodi:namedview
     id="base"
     pagecolor="#ffffff"
     bordercolor="#666666"
     borderopacity="1.0"
     inkscape:pageopacity="0.0"
     inkscape:pageshadow="2"
     inkscape:zoom="5.6"
     inkscape:cx="68.2827"
     inkscape:cy="1.8995567"
     inkscape:document-units="mm"
     inkscape:current-layer="layer1"
     showgrid="false"
     inkscape:window-width="1311"
     inkscape:window-height="747"
     inkscape:window-x="55"
     inkscape:window-y="21"
     inkscape:window-maximized="1"
     units="mm"
     showguides="true"
     inkscape:guide-bbox="true"
     inkscape:snap-page="false" />
  <metadata
     id="metadata7">
    <rdf:RDF>
      <cc:Work
         rdf:about="">
        <dc:format>image/svg+xml</dc:format>
        <dc:type
           rdf:resource="http://purl.org/dc/dcmitype/StillImage" />
        <dc:title></dc:title>
      </cc:Work>
    </rdf:RDF>
  </metadata>
  <g
     inkscape:label="Layer 1"
     inkscape:groupmode="layer"
     id="layer1"
     transform="translate(0,-1024.0157)">
    <g
       transform="matrix(1.25,0,0,-1.25,-5.4991698,1051.8927)"
       inkscape:label="text 1.3"
       id="g3288">
      <path
         id="path3290"
         style="fill:#fff500;fill-opacity:1;fill-rule:nonzero;stroke:none"
         d="m 9.4689,2.3987 c -0.336,0 -0.6999,0.0079 -1.092,0.0241 -0.392,0.0158 -0.784,0.0399 -1.176,0.072 -0.3921,0.032 -0.7801,0.072 -1.164,0.1199 -0.384,0.0479 -0.7361,0.1119 -1.0561,0.1919 l 0,16.1283 c 0.32,0.0799 0.6721,0.144 1.0561,0.1919 0.3839,0.0479 0.7719,0.0878 1.164,0.1199 0.392,0.032 0.78,0.0561 1.1639,0.072 0.3841,0.0161 0.7441,0.0241 1.08,0.0241 0.9601,0 1.8601,-0.072 2.7,-0.216 0.8401,-0.144 1.5681,-0.3881 2.1841,-0.7319 0.6159,-0.3442 1.1001,-0.7963 1.4521,-1.3561 0.3518,-0.5602 0.5279,-1.2481 0.5279,-2.0639 0,-0.9122 -0.216,-1.6603 -0.648,-2.2442 -0.432,-0.584 -1.008,-1.0199 -1.728,-1.3079 0.9759,-0.288 1.752,-0.7441 2.328,-1.368 0.576,-0.6242 0.864,-1.5041 0.864,-2.6402 0,-1.664 -0.612,-2.916 -1.836,-3.7559 -1.224,-0.8399 -3.164,-1.26 -5.82,-1.26 z m -2.1841,7.8959 0,-5.8558 C 7.4608,4.4226 7.6689,4.4067 7.9089,4.3906 8.117,4.3747 8.3608,4.3628 8.6409,4.3546 c 0.28,-0.008 0.604,-0.0119 0.972,-0.0119 0.6879,0 1.3399,0.0439 1.9559,0.1321 0.6162,0.0878 1.1562,0.2438 1.62,0.468 0.464,0.2239 0.8362,0.536 1.116,0.936 0.28,0.3999 0.4201,0.9039 0.4201,1.512 0,0.5439 -0.1041,1.004 -0.3121,1.3799 -0.2078,0.3761 -0.508,0.676 -0.9,0.9 -0.3918,0.2239 -0.8598,0.3841 -1.404,0.4799 -0.544,0.0961 -1.152,0.144 -1.8239,0.144 l -3.0001,0 z m 0,1.872 2.448,0 c 0.576,0 1.1202,0.0402 1.6321,0.1202 0.512,0.0799 0.9559,0.2239 1.332,0.432 0.3759,0.208 0.6719,0.4799 0.8879,0.8158 0.216,0.3362 0.324,0.7602 0.324,1.2722 0,0.4799 -0.112,0.8838 -0.3359,1.2121 -0.224,0.3279 -0.5321,0.5918 -0.9241,0.792 -0.3918,0.1998 -0.8519,0.3478 -1.3799,0.4439 -0.5281,0.0961 -1.088,0.144 -1.6801,0.144 -0.5919,0 -1.0559,-0.008 -1.3919,-0.0241 -0.3361,-0.0159 -0.64,-0.04 -0.9121,-0.072 l 0,-5.1361 z M 24.853,8.7106 c -0.432,0 -0.8521,-0.0119 -1.26,-0.036 -0.4081,-0.0238 -0.7721,-0.076 -1.0921,-0.1559 l 0,-4.2959 c 0.096,-0.0162 0.2361,-0.0321 0.42,-0.0482 0.184,-0.0159 0.3841,-0.0278 0.6001,-0.036 0.216,-0.008 0.436,-0.0159 0.6599,-0.0238 0.224,-0.0082 0.4241,-0.0122 0.6001,-0.0122 0.976,0 1.728,0.184 2.2559,0.5522 0.528,0.3679 0.792,0.9598 0.792,1.7759 0,0.3999 -0.084,0.7441 -0.252,1.0321 -0.1679,0.288 -0.3918,0.5238 -0.6719,0.7078 -0.28,0.1842 -0.5961,0.32 -0.9481,0.4082 -0.3518,0.0878 -0.72,0.1318 -1.1039,0.1318 z m -4.5841,6.3122 2.232,0 0,-4.7761 c 0.2721,0.064 0.6681,0.1281 1.188,0.1919 0.5201,0.064 1.0201,0.0961 1.5,0.0961 0.656,0 1.2802,-0.076 1.872,-0.2279 0.5922,-0.152 1.1121,-0.3921 1.56,-0.72 0.4481,-0.328 0.8041,-0.7521 1.068,-1.2722 0.264,-0.5199 0.396,-1.1398 0.396,-1.8598 0,-0.7521 -0.1278,-1.3921 -0.384,-1.9202 -0.256,-0.5278 -0.616,-0.9598 -1.08,-1.296 -0.4638,-0.3359 -1.0239,-0.58 -1.6799,-0.7319 -0.6559,-0.152 -1.3759,-0.2279 -2.16,-0.2279 -0.752,0 -1.512,0.0439 -2.2801,0.1318 -0.768,0.0881 -1.512,0.22 -2.232,0.396 l 0,12.2162 z m 14.352,-12.4801 -2.232,0 0,12.4801 2.232,0 0,-12.4801 z m 14.3283,12.4801 0,-12.4801 -2.16,0 0,9.504 C 46.309,11.4386 45.7812,10.7266 45.2052,9.9108 44.6292,9.0947 44.0532,8.2508 43.4772,7.3786 42.9012,6.5066 42.349,5.6466 41.8212,4.7988 41.2931,3.9506 40.837,3.1986 40.4532,2.5427 l -1.9922,0 0,12.4801 2.16,0 0,-8.9762 c 0.4162,0.6882 0.8881,1.4442 1.4162,2.268 0.5278,0.824 1.0761,1.6401 1.6438,2.448 0.5681,0.8081 1.1362,1.584 1.7042,2.3281 0.5681,0.7441 1.0999,1.3881 1.5959,1.9321 l 1.9681,0 z m -5.2322,2.016 c -1.008,0 -1.8277,0.2559 -2.4599,0.7679 -0.6318,0.5119 -1.0119,1.224 -1.1401,2.1362 l 1.7042,0.4558 c 0.1279,-0.512 0.3439,-0.9281 0.648,-1.2478 0.3039,-0.3201 0.72,-0.4802 1.2478,-0.4802 0.5281,0 0.9443,0.1601 1.2481,0.4802 0.3042,0.3197 0.5202,0.7358 0.648,1.2478 l 1.6801,-0.4558 c -0.1281,-0.9122 -0.504,-1.6243 -1.1282,-2.1362 -0.6239,-0.512 -1.44,-0.7679 -2.448,-0.7679 z m 17.8801,-2.016 0,-1.872 -4.0561,0 0,-10.6081 -2.232,0 0,10.6081 -4.0558,0 0,1.872 10.3439,0 z m 12.7922,0 0,-12.4801 -2.16,0 0,9.504 c -0.4802,-0.6081 -1.008,-1.3201 -1.584,-2.1359 -0.576,-0.8161 -1.152,-1.66 -1.728,-2.5322 -0.576,-0.872 -1.1282,-1.732 -1.656,-2.5798 -0.5281,-0.8482 -0.9842,-1.6002 -1.368,-2.2561 l -1.9922,0 0,12.4801 2.16,0 0,-8.9762 c 0.4162,0.6882 0.8881,1.4442 1.4162,2.268 0.5278,0.824 1.0761,1.6401 1.6438,2.448 0.5681,0.8081 1.1362,1.584 1.7042,2.3281 0.5681,0.7441 1.0999,1.3881 1.5959,1.9321 l 1.9681,0 z"
         inkscape:connector-curvature="0" />
    </g>
  </g>
</svg>
